<svg xmlns="http://www.w3.org/2000/svg" viewBox="0 0 388.38 48.33"><defs><style>.cls-1{fill:#231f20;fill-rule:evenodd;}</style></defs><g id="Layer_2" data-name="Layer 2"><g id="Layer_1-2" data-name="Layer 1"><g id="Layer_2-2" data-name="Layer 2"><g id="Layer_1-2-2" data-name="Layer 1-2"><path class="cls-1" d="M54.18,40.19V19.05a.45.45,0,0,1,.45-.45h6.59a.38.38,0,0,0,.38-.38h0V11.3a.4.4,0,0,0-.38-.39H54.64a.45.45,0,0,1-.45-.45h0V.75A.38.38,0,0,0,53.8.36H46.92a.38.38,0,0,0-.39.37V42.28a6,6,0,0,0,6,6h8.68a.4.4,0,0,0,.38-.39V41a.4.4,0,0,0-.38-.39H54.64a.46.46,0,0,1-.46-.45Z"/><path class="cls-1" d="M347.11,47.91a.41.41,0,0,0,.39.39h6.88a.4.4,0,0,0,.39-.39V30.09a11.22,11.22,0,0,1,.16-1.92,11.64,11.64,0,0,1,11.48-9.72h1.25a.38.38,0,0,0,.39-.39h0V11.18a.4.4,0,0,0-.39-.39h-1.25a19.31,19.31,0,0,0-19.3,19.3V47.91Z"/><path class="cls-1" d="M269.56,16.19a16,16,0,0,0-27.9,10.75v21a.41.41,0,0,0,.39.39h6.88a.4.4,0,0,0,.39-.39v-21a8.38,8.38,0,0,1,16.75,0v21a.4.4,0,0,0,.38.39h6.89a.4.4,0,0,0,.38-.39v-21a8.38,8.38,0,0,1,16.75,0v21a.41.41,0,0,0,.39.39h6.88a.4.4,0,0,0,.39-.39v-21a16,16,0,0,0-27.9-10.75.41.41,0,0,1-.33.15.45.45,0,0,1-.34-.15Z"/><path class="cls-1" d="M111.07.12a.38.38,0,0,0-.39.37V47.91a.39.39,0,0,0,.39.39H118a.4.4,0,0,0,.38-.39V.51A.38.38,0,0,0,118,.12h-6.93Z"/><path class="cls-1" d="M77.77,11.9V.39A.38.38,0,0,0,77.4,0H70.5a.38.38,0,0,0-.38.38h0V47.91a.4.4,0,0,0,.38.39h6.88a.38.38,0,0,0,.39-.39V26.34a8.38,8.38,0,0,1,16.75,0V47.91a.39.39,0,0,0,.39.39h6.88a.4.4,0,0,0,.39-.39V26.34a16,16,0,0,0-23.74-14,.45.45,0,0,1-.45,0,.44.44,0,0,1-.22-.39Z"/><path class="cls-1" d="M16.9,9.85a19.3,19.3,0,1,0,9.78,37,.38.38,0,0,0,.24-.36V38.59a.36.36,0,0,0-.21-.35.38.38,0,0,0-.41,0,11.46,11.46,0,0,1-5.11,2.2,11.6,11.6,0,0,1-3.84,0h-.16a11.64,11.64,0,0,1,.16-22.94,11.6,11.6,0,0,1,3.84,0h.15A11.65,11.65,0,0,1,30.93,29V47.31a.38.38,0,0,0,.38.38H38.2a.39.39,0,0,0,.39-.38V29A19.3,19.3,0,0,0,16.9,9.85Z"/><path class="cls-1" d="M151.3,37.23A11.53,11.53,0,0,1,146.85,40h-.1a11.66,11.66,0,0,1-14.45-6.6h0a11.61,11.61,0,0,1,0-8.82h0A11.69,11.69,0,0,1,135.78,20h0a11.66,11.66,0,0,1,16.39,1.82,11.89,11.89,0,0,1,1.66,2.81h0c.08.19.16.39.22.58h-18.6a11.82,11.82,0,0,0,0,7.66h26.24a.38.38,0,0,0,.38-.34l.14-1.1a20.11,20.11,0,0,0,0-4.78,19.3,19.3,0,0,0-38.31,0,20.11,20.11,0,0,0,0,4.78,19.3,19.3,0,0,0,32.8,11.26l.88-.89a.38.38,0,0,0,0-.54h0l-4.86-4.86a.39.39,0,0,0-.55,0l-.88.88Z"/><path class="cls-1" d="M175.45,40.19V19.05a.45.45,0,0,1,.45-.45h6.59a.38.38,0,0,0,.39-.39V11.3a.4.4,0,0,0-.39-.39H175.9a.45.45,0,0,1-.45-.45V.75a.38.38,0,0,0-.37-.39h-6.9a.39.39,0,0,0-.39.39V42.28a6,6,0,0,0,6,6h8.68a.4.4,0,0,0,.39-.39V41a.4.4,0,0,0-.39-.39h-6.59a.45.45,0,0,1-.45-.45Z"/><path class="cls-1" d="M215.84,37.23A11.57,11.57,0,0,1,211.4,40h-.11a11.63,11.63,0,0,1-14.44-6.6h0a11.71,11.71,0,0,1,0-8.82h0A11.59,11.59,0,0,1,200.32,20h0a11.65,11.65,0,0,1,16.37,1.87,11.47,11.47,0,0,1,1.63,2.76h0c.08.19.15.39.22.58H200a11.57,11.57,0,0,0,0,7.66h26.23a.37.37,0,0,0,.38-.34l.14-1.1A19.3,19.3,0,1,0,210,48.14a19.34,19.34,0,0,0,11.24-5.5l.89-.89a.39.39,0,0,0,0-.55l-4.87-4.86a.38.38,0,0,0-.54,0h0l-.89.88Z"/><path class="cls-1" d="M320.23,9.85a19.3,19.3,0,1,0,9.78,37,.38.38,0,0,0,.24-.36V38.59a.36.36,0,0,0-.21-.35.38.38,0,0,0-.41,0,11.46,11.46,0,0,1-5.11,2.2,11.78,11.78,0,0,1-3.84,0h-.16a11.64,11.64,0,0,1,.16-22.94,11.78,11.78,0,0,1,3.84,0h.15A11.65,11.65,0,0,1,334.26,29V47.31a.4.4,0,0,0,.39.38h6.88a.39.39,0,0,0,.39-.38V29A19.31,19.31,0,0,0,325,9.85a19.12,19.12,0,0,0-4.78,0Z"/><path class="cls-1" d="M380.9,40.19V19.05a.45.45,0,0,1,.45-.45H388a.38.38,0,0,0,.39-.39h0V11.3a.4.4,0,0,0-.39-.39H381.4a.45.45,0,0,1-.45-.45h0V.75a.38.38,0,0,0-.37-.39h-6.9a.39.39,0,0,0-.39.39h0V42.28a6,6,0,0,0,6,6H388a.4.4,0,0,0,.39-.39V41a.4.4,0,0,0-.39-.39H381.4a.45.45,0,0,1-.45-.45h0Z"/></g></g></g></g></svg>