<svg xmlns="http://www.w3.org/2000/svg" viewBox="0 0 388.34 48.3"><defs><style>.cls-1{fill:#fff;fill-rule:evenodd;}</style></defs><g id="Layer_2" data-name="Layer 2"><g id="Layer_1-2" data-name="Layer 1"><path class="cls-1" d="M54.19,40.19V19.05a.45.45,0,0,1,.45-.45h6.59a.38.38,0,0,0,.38-.39V11.3a.39.39,0,0,0-.38-.39H54.65a.45.45,0,0,1-.45-.45V.75a.39.39,0,0,0-.39-.39H46.93a.38.38,0,0,0-.39.39V42.28a6,6,0,0,0,6,6h8.68a.39.39,0,0,0,.38-.39V41a.39.39,0,0,0-.38-.39H54.65a.46.46,0,0,1-.46-.45Z"/><path class="cls-1" d="M347.12,47.91a.4.4,0,0,0,.39.39h6.88a.4.4,0,0,0,.39-.39V30.09a11.31,11.31,0,0,1,.16-1.92,11.64,11.64,0,0,1,11.48-9.72h1.25a.39.39,0,0,0,.39-.39V11.18a.4.4,0,0,0-.39-.39h-1.25a19.31,19.31,0,0,0-19.3,19.3V47.91Z"/><path class="cls-1" d="M269.57,16.19a16,16,0,0,0-27.9,10.75v21a.4.4,0,0,0,.39.39h6.88a.4.4,0,0,0,.39-.39v-21a8.38,8.38,0,0,1,16.75,0v21a.39.39,0,0,0,.38.39h6.89a.39.39,0,0,0,.38-.39v-21a8.38,8.38,0,0,1,16.75,0v21a.4.4,0,0,0,.39.39h6.88a.4.4,0,0,0,.39-.39v-21a16,16,0,0,0-27.9-10.75.43.43,0,0,1-.33.15.43.43,0,0,1-.34-.15Z"/><path class="cls-1" d="M111.08.12a.38.38,0,0,0-.39.39v47.4a.39.39,0,0,0,.39.39H118a.39.39,0,0,0,.38-.39V.51A.38.38,0,0,0,118,.12Z"/><path class="cls-1" d="M77.78,11.9V.39A.38.38,0,0,0,77.39,0H70.51a.38.38,0,0,0-.38.39V47.91a.39.39,0,0,0,.38.39h6.88a.39.39,0,0,0,.39-.39V26.34a8.38,8.38,0,0,1,16.75,0V47.91a.39.39,0,0,0,.39.39h6.88a.4.4,0,0,0,.39-.39V26.34a16,16,0,0,0-23.74-14,.45.45,0,0,1-.45,0,.46.46,0,0,1-.22-.39Z"/><path class="cls-1" d="M16.91,9.85a19.3,19.3,0,0,0,0,38.3,19.12,19.12,0,0,0,4.78,0,19.37,19.37,0,0,0,5-1.32.39.39,0,0,0,.24-.36V38.59a.37.37,0,0,0-.21-.35.38.38,0,0,0-.41,0,11.46,11.46,0,0,1-5.11,2.2,11.31,11.31,0,0,1-1.92.16,11.14,11.14,0,0,1-1.92-.16l-.16,0a11.64,11.64,0,0,1,.16-22.94,11.14,11.14,0,0,1,1.92-.16,11.31,11.31,0,0,1,1.92.16l.15,0A11.65,11.65,0,0,1,30.94,29V47.31a.38.38,0,0,0,.39.38h6.88a.39.39,0,0,0,.39-.38V29A19.31,19.31,0,0,0,21.69,9.85a19.12,19.12,0,0,0-4.78,0Z"/><path class="cls-1" d="M151.31,37.23A11.62,11.62,0,0,1,146.86,40l-.1,0a11.71,11.71,0,0,1-10.94-1.94,11.64,11.64,0,0,1-3.51-4.66s0,0,0,0a11.61,11.61,0,0,1,0-8.82s0,0,0,0a11.66,11.66,0,0,1,3.48-4.63h0a11.66,11.66,0,0,1,18.05,4.63s0,0,0,0c.08.19.16.39.22.58h-18.6a11.78,11.78,0,0,0,0,7.66h26.24a.38.38,0,0,0,.38-.34l.14-1.1a20.47,20.47,0,0,0,0-4.78,19.3,19.3,0,0,0-38.31,0,20.47,20.47,0,0,0,0,4.78,19.3,19.3,0,0,0,32.8,11.26l.88-.89a.38.38,0,0,0,0-.55l-4.86-4.86a.39.39,0,0,0-.55,0l-.88.88Z"/><path class="cls-1" d="M175.46,40.19V19.05a.45.45,0,0,1,.45-.45h6.59a.39.39,0,0,0,.39-.39V11.3a.4.4,0,0,0-.39-.39h-6.59a.45.45,0,0,1-.45-.45V.75a.38.38,0,0,0-.39-.39h-6.88a.39.39,0,0,0-.39.39V42.28a6,6,0,0,0,6,6h8.68a.4.4,0,0,0,.39-.39V41a.4.4,0,0,0-.39-.39h-6.59a.45.45,0,0,1-.45-.45Z"/><path class="cls-1" d="M215.85,37.23A11.66,11.66,0,0,1,211.41,40l-.11,0a11.63,11.63,0,0,1-14.44-6.6.08.08,0,0,1,0,0,11.74,11.74,0,0,1,0-8.82s0,0,0,0a11.55,11.55,0,0,1,3.47-4.63h0a11.65,11.65,0,0,1,18,4.63s0,0,0,0c.08.19.15.39.22.58H200a11.61,11.61,0,0,0,0,7.66h26.23a.37.37,0,0,0,.38-.34l.14-1.1a19.12,19.12,0,0,0,0-4.78,19.3,19.3,0,0,0-38.3,0,19.12,19.12,0,0,0,0,4.78,19.3,19.3,0,0,0,32.79,11.26l.89-.89a.39.39,0,0,0,0-.55l-4.87-4.86a.38.38,0,0,0-.54,0l-.89.88Z"/><path class="cls-1" d="M320.24,9.85a19.3,19.3,0,0,0,0,38.3,19.12,19.12,0,0,0,4.78,0,19.27,19.27,0,0,0,5-1.32.38.38,0,0,0,.24-.36V38.59a.37.37,0,0,0-.21-.35.38.38,0,0,0-.41,0,11.46,11.46,0,0,1-5.11,2.2,11.6,11.6,0,0,1-3.84,0l-.16,0a11.64,11.64,0,0,1,.16-22.94,11.6,11.6,0,0,1,3.84,0l.15,0A11.65,11.65,0,0,1,334.27,29V47.31a.39.39,0,0,0,.39.38h6.88a.39.39,0,0,0,.39-.38V29A19.31,19.31,0,0,0,325,9.85a19.12,19.12,0,0,0-4.78,0Z"/><path class="cls-1" d="M380.91,40.19V19.05a.45.45,0,0,1,.45-.45H388a.39.39,0,0,0,.39-.39V11.3a.4.4,0,0,0-.39-.39h-6.59a.45.45,0,0,1-.45-.45V.75a.38.38,0,0,0-.39-.39h-6.88a.39.39,0,0,0-.39.39V42.28a6,6,0,0,0,6,6H388a.4.4,0,0,0,.39-.39V41a.4.4,0,0,0-.39-.39h-6.59a.45.45,0,0,1-.45-.45Z"/></g></g></svg>